<?xml version="1.0" encoding="UTF-8"?>
<svg xmlns="http://www.w3.org/2000/svg" xmlns:xlink="http://www.w3.org/1999/xlink" width="75px" height="22px" viewBox="0 0 75 22" version="1.1">
<g id="surface1">
<path style=" stroke:none;fill-rule:nonzero;fill:rgb(100%,100%,100%);fill-opacity:1;" d="M 7.644531 15.714844 C 7.667969 15.785156 7.640625 15.859375 7.578125 15.882812 L 6.117188 16.421875 C 6.0625 16.441406 6 16.402344 5.976562 16.335938 L 5.664062 15.410156 C 5.542969 15.089844 5.316406 14.898438 5.144531 14.96875 L 0.816406 16.828125 C 0.578125 16.933594 0.261719 16.671875 0.0976562 16.238281 C -0.0664062 15.808594 -0.0195312 15.363281 0.207031 15.246094 L 4.511719 13.050781 C 4.675781 12.949219 4.71875 12.621094 4.613281 12.292969 L 4.3125 11.40625 C 4.292969 11.34375 4.3125 11.269531 4.363281 11.242188 L 5.679688 10.476562 C 5.734375 10.445312 5.796875 10.472656 5.820312 10.535156 Z M 23.144531 5.34375 C 24.226562 7.460938 24.457031 9.652344 23.480469 10.019531 L 17.128906 12.355469 C 16.417969 12.621094 15.199219 11.207031 14.429688 9.386719 C 13.660156 7.570312 13.53125 5.917969 14.179688 5.539062 L 19.617188 2.382812 C 20.496094 1.875 22.035156 3.167969 23.144531 5.34375 Z M 20.765625 6.410156 C 20.421875 5.703125 19.875 5.082031 19.535156 5.253906 L 16.238281 6.953125 C 15.957031 7.101562 16.105469 7.824219 16.398438 8.480469 C 16.691406 9.136719 17.140625 9.753906 17.441406 9.628906 L 20.917969 8.121094 C 21.273438 7.960938 21.113281 7.117188 20.765625 6.410156 Z M 14.558594 11.054688 C 14.523438 10.972656 14.4375 10.929688 14.363281 10.964844 L 10.535156 12.625 L 13.675781 9.894531 C 13.878906 9.699219 13.832031 9.4375 13.75 9.222656 C 13.75 9.222656 13.640625 8.925781 13.589844 8.800781 C 12.867188 7.089844 11.03125 7.363281 10.03125 7.945312 L 8.410156 8.890625 C 7.578125 9.371094 6.453125 10.664062 6.953125 12.070312 L 7.015625 12.246094 C 7.039062 12.3125 7.097656 12.347656 7.148438 12.324219 L 8.628906 11.601562 C 8.679688 11.574219 8.703125 11.527344 8.679688 11.429688 C 8.605469 11.109375 8.832031 10.765625 9.132812 10.617188 L 10.867188 9.722656 C 11.066406 9.621094 11.304688 9.574219 11.566406 9.652344 L 8.175781 12.867188 C 7.757812 13.265625 7.640625 13.996094 7.878906 14.667969 L 8.183594 15.515625 C 8.207031 15.585938 8.269531 15.628906 8.320312 15.609375 L 15.265625 13.042969 C 15.34375 13.015625 15.378906 12.925781 15.34375 12.839844 Z M 27.484375 4.261719 L 26.792969 4.261719 L 26.792969 7.160156 L 27.484375 7.160156 Z M 29.503906 7.195312 C 29.988281 7.195312 30.375 7.054688 30.628906 6.820312 L 30.25 6.261719 C 30.039062 6.445312 29.828125 6.542969 29.535156 6.542969 C 29.019531 6.542969 28.734375 6.167969 28.734375 5.714844 C 28.734375 5.183594 29.085938 4.875 29.496094 4.875 C 29.8125 4.875 30.058594 5.027344 30.203125 5.203125 L 30.636719 4.683594 C 30.34375 4.359375 29.925781 4.222656 29.515625 4.222656 C 28.558594 4.222656 28.027344 4.863281 28.027344 5.714844 C 28.027344 6.65625 28.65625 7.195312 29.503906 7.195312 Z M 32.421875 7.195312 C 32.90625 7.195312 33.292969 7.054688 33.546875 6.820312 L 33.167969 6.261719 C 32.960938 6.445312 32.746094 6.542969 32.457031 6.542969 C 31.941406 6.542969 31.65625 6.167969 31.65625 5.714844 C 31.65625 5.183594 32.003906 4.875 32.414062 4.875 C 32.734375 4.875 32.980469 5.027344 33.125 5.203125 L 33.554688 4.683594 C 33.261719 4.359375 32.847656 4.222656 32.4375 4.222656 C 31.476562 4.222656 30.945312 4.863281 30.945312 5.714844 C 30.945312 6.65625 31.574219 7.195312 32.421875 7.195312 Z M 35.664062 5.558594 L 35.675781 5.558594 L 36.257812 6.625 L 36.6875 6.625 L 37.269531 5.5625 L 37.277344 5.5625 L 37.277344 7.160156 L 37.945312 7.160156 L 37.945312 4.261719 L 37.265625 4.261719 L 36.480469 5.800781 L 36.472656 5.800781 L 35.675781 4.261719 L 35 4.261719 L 35 7.160156 L 35.664062 7.160156 Z M 40.648438 6.550781 L 39.25 6.550781 L 39.25 6.011719 L 40.464844 6.011719 L 40.464844 5.425781 L 39.25 5.425781 L 39.25 4.871094 L 40.589844 4.871094 L 40.589844 4.261719 L 38.59375 4.261719 L 38.59375 7.160156 L 40.648438 7.160156 Z M 41.875 5.414062 L 41.882812 5.414062 L 43.042969 7.160156 L 43.703125 7.160156 L 43.703125 4.261719 L 43.039062 4.261719 L 43.039062 6.050781 L 43.03125 6.054688 L 41.859375 4.261719 L 41.214844 4.261719 L 41.214844 7.160156 L 41.875 7.160156 Z M 44.394531 4.261719 L 44.277344 5.363281 L 44.742188 5.363281 L 45.015625 4.261719 Z M 46.417969 6.59375 C 46.199219 6.59375 45.914062 6.5 45.660156 6.300781 L 45.371094 6.875 C 45.648438 7.09375 46.027344 7.195312 46.414062 7.195312 C 47 7.195312 47.492188 6.953125 47.492188 6.3125 C 47.492188 5.726562 47.054688 5.582031 46.574219 5.398438 C 46.234375 5.269531 46.125 5.195312 46.125 5.050781 C 46.125 4.894531 46.261719 4.820312 46.433594 4.820312 C 46.652344 4.820312 46.871094 4.933594 47.066406 5.089844 L 47.429688 4.542969 C 47.167969 4.328125 46.8125 4.226562 46.425781 4.226562 C 45.847656 4.226562 45.425781 4.519531 45.425781 5.085938 C 45.425781 5.667969 45.878906 5.863281 46.304688 6.007812 C 46.652344 6.128906 46.789062 6.1875 46.789062 6.351562 C 46.789062 6.484375 46.675781 6.59375 46.417969 6.59375 Z M 49.5 7.160156 L 50.183594 7.160156 L 50.183594 4.871094 L 50.933594 4.871094 L 50.933594 4.261719 L 48.753906 4.261719 L 48.753906 4.871094 L 49.5 4.871094 Z M 52.210938 4.824219 C 52.472656 4.824219 52.570312 4.976562 52.578125 5.136719 C 52.585938 5.363281 52.441406 5.554688 52.230469 5.78125 L 51.363281 6.707031 L 51.375 7.160156 L 53.296875 7.160156 L 53.296875 6.53125 L 52.347656 6.53125 L 52.34375 6.515625 L 52.796875 6.050781 C 53.164062 5.667969 53.273438 5.316406 53.273438 5.035156 C 53.273438 4.515625 52.902344 4.183594 52.300781 4.183594 C 51.878906 4.183594 51.554688 4.328125 51.324219 4.496094 L 51.644531 5.054688 C 51.78125 4.933594 51.988281 4.824219 52.210938 4.824219 Z M 56.007812 5.6875 C 56.007812 6.605469 55.589844 7.199219 54.851562 7.199219 C 54.125 7.199219 53.691406 6.632812 53.691406 5.6875 C 53.691406 4.78125 54.113281 4.183594 54.851562 4.183594 C 55.574219 4.183594 56.007812 4.746094 56.007812 5.6875 Z M 55.304688 5.6875 C 55.304688 5.175781 55.152344 4.832031 54.851562 4.832031 C 54.578125 4.832031 54.398438 5.109375 54.398438 5.6875 C 54.398438 6.199219 54.550781 6.546875 54.851562 6.546875 C 55.121094 6.546875 55.304688 6.273438 55.304688 5.6875 Z M 31.589844 11.800781 L 31.570312 11.800781 L 30.777344 8.542969 L 29.554688 8.542969 L 28.738281 11.808594 L 28.722656 11.808594 L 27.859375 8.542969 L 26.542969 8.542969 L 28.164062 13.773438 L 29.25 13.773438 L 30.171875 10.296875 L 30.1875 10.296875 L 31.066406 13.773438 L 32.144531 13.773438 L 33.78125 8.542969 L 32.464844 8.542969 Z M 39.289062 11.160156 C 39.289062 12.757812 38.175781 13.839844 36.632812 13.839844 C 35.0625 13.839844 33.96875 12.734375 33.96875 11.160156 C 33.96875 9.582031 35.0625 8.46875 36.632812 8.46875 C 38.175781 8.46875 39.289062 9.554688 39.289062 11.160156 Z M 38.015625 11.160156 C 38.015625 10.289062 37.433594 9.621094 36.632812 9.621094 C 35.816406 9.621094 35.242188 10.304688 35.242188 11.160156 C 35.242188 12.015625 35.816406 12.699219 36.632812 12.699219 C 37.433594 12.699219 38.015625 12.027344 38.015625 11.160156 Z M 42.910156 11.769531 C 43.492188 12.398438 43.863281 13.082031 44.140625 13.773438 L 42.765625 13.773438 C 42.519531 13.179688 42.148438 12.589844 41.644531 12.085938 L 41.171875 12.085938 L 41.171875 13.773438 L 39.984375 13.773438 L 39.984375 8.542969 L 42 8.542969 C 43.324219 8.542969 43.847656 9.273438 43.847656 10.261719 C 43.847656 10.984375 43.515625 11.503906 42.910156 11.769531 Z M 42.589844 10.320312 C 42.589844 9.921875 42.351562 9.625 41.804688 9.625 L 41.171875 9.625 L 41.171875 11.011719 L 41.78125 11.011719 C 42.304688 11.011719 42.589844 10.753906 42.589844 10.320312 Z M 46.046875 8.542969 L 44.800781 8.542969 L 44.800781 13.773438 L 48.394531 13.773438 L 48.394531 12.675781 L 46.046875 12.675781 Z M 53.480469 11.167969 C 53.480469 12.707031 52.492188 13.773438 50.816406 13.773438 L 49.007812 13.773438 L 49.007812 8.542969 L 50.796875 8.542969 C 52.433594 8.542969 53.480469 9.621094 53.480469 11.167969 Z M 52.207031 11.167969 C 52.207031 10.289062 51.617188 9.640625 50.824219 9.640625 L 50.191406 9.640625 L 50.191406 12.675781 L 50.738281 12.675781 C 51.625 12.675781 52.207031 12.015625 52.207031 11.167969 Z M 58.390625 9.648438 C 58.964844 9.648438 59.410156 9.921875 59.671875 10.238281 L 60.449219 9.304688 C 59.917969 8.722656 59.167969 8.46875 58.425781 8.46875 C 56.695312 8.46875 55.734375 9.625 55.734375 11.167969 C 55.734375 12.867188 56.871094 13.839844 58.40625 13.839844 C 59.277344 13.839844 59.976562 13.582031 60.433594 13.164062 L 59.75 12.152344 C 59.375 12.484375 58.988281 12.664062 58.464844 12.664062 C 57.53125 12.664062 57.015625 11.984375 57.015625 11.167969 C 57.015625 10.207031 57.648438 9.648438 58.390625 9.648438 Z M 64.246094 11.59375 C 64.246094 12.351562 63.847656 12.691406 63.316406 12.691406 C 62.71875 12.691406 62.40625 12.25 62.40625 11.59375 L 62.40625 8.542969 L 61.183594 8.542969 L 61.183594 11.667969 C 61.183594 13.140625 62.050781 13.839844 63.316406 13.839844 C 64.683594 13.839844 65.460938 13.058594 65.460938 11.667969 L 65.460938 8.542969 L 64.246094 8.542969 Z M 70.125 10.347656 C 70.125 11.511719 69.363281 12.085938 68.191406 12.085938 L 67.507812 12.085938 L 67.507812 13.773438 L 66.320312 13.773438 L 66.320312 8.542969 L 68.285156 8.542969 C 69.558594 8.542969 70.125 9.304688 70.125 10.347656 Z M 68.867188 10.320312 C 68.867188 9.921875 68.621094 9.625 68.074219 9.625 L 67.507812 9.625 L 67.507812 11.011719 L 68.050781 11.011719 C 68.589844 11.011719 68.867188 10.753906 68.867188 10.320312 Z M 68.867188 10.320312 "/>
<path style=" stroke:none;fill-rule:nonzero;fill:rgb(100%,56.862748%,0%);fill-opacity:1;" d="M 26.808594 15.164062 L 27.5 15.164062 L 27.5 18.058594 L 26.808594 18.058594 Z M 29.890625 16.949219 L 29.882812 16.953125 L 28.710938 15.164062 L 28.066406 15.164062 L 28.066406 18.058594 L 28.726562 18.058594 L 28.726562 16.316406 L 28.734375 16.316406 L 29.894531 18.058594 L 30.554688 18.058594 L 30.554688 15.164062 L 29.890625 15.164062 Z M 33.597656 16.617188 C 33.597656 17.46875 33.050781 18.058594 32.121094 18.058594 L 31.121094 18.058594 L 31.121094 15.164062 L 32.109375 15.164062 C 33.015625 15.164062 33.597656 15.761719 33.597656 16.617188 Z M 32.890625 16.617188 C 32.890625 16.132812 32.566406 15.773438 32.125 15.773438 L 31.777344 15.773438 L 31.777344 17.453125 L 32.078125 17.453125 C 32.570312 17.453125 32.890625 17.085938 32.890625 16.617188 Z M 34.054688 18.058594 L 34.746094 18.058594 L 34.746094 15.164062 L 34.054688 15.164062 Z M 36.800781 15.164062 L 37.847656 18.058594 L 37.148438 18.058594 L 36.980469 17.539062 L 35.980469 17.539062 L 35.8125 18.058594 L 35.105469 18.058594 L 36.15625 15.164062 Z M 36.800781 16.96875 L 36.484375 15.988281 L 36.476562 15.988281 L 36.160156 16.96875 Z M 41.132812 17.503906 L 41.632812 18.058594 L 40.917969 18.058594 L 40.734375 17.855469 L 40.726562 17.855469 C 40.570312 17.992188 40.285156 18.097656 39.96875 18.097656 C 39.410156 18.097656 39.015625 17.765625 39.015625 17.253906 C 39.015625 16.894531 39.21875 16.636719 39.496094 16.472656 L 39.460938 16.4375 C 39.316406 16.273438 39.25 16.082031 39.25 15.898438 C 39.25 15.449219 39.613281 15.125 40.121094 15.125 C 40.601562 15.125 40.949219 15.375 40.949219 15.824219 C 40.949219 16.171875 40.710938 16.433594 40.339844 16.605469 L 40.714844 17.027344 L 40.734375 17.027344 C 40.792969 16.902344 40.816406 16.761719 40.816406 16.652344 L 41.390625 16.648438 C 41.378906 16.914062 41.296875 17.273438 41.132812 17.488281 Z M 39.84375 15.898438 C 39.84375 15.996094 39.890625 16.105469 39.984375 16.203125 L 40.027344 16.253906 C 40.21875 16.167969 40.359375 16.058594 40.359375 15.875 C 40.359375 15.738281 40.261719 15.652344 40.109375 15.652344 C 39.957031 15.652344 39.84375 15.746094 39.84375 15.898438 Z M 40.363281 17.441406 L 39.828125 16.839844 C 39.699219 16.929688 39.632812 17.054688 39.632812 17.167969 C 39.632812 17.402344 39.816406 17.53125 40.054688 17.53125 C 40.164062 17.53125 40.277344 17.503906 40.363281 17.453125 Z M 43.898438 16.296875 C 43.554688 16.171875 43.445312 16.097656 43.445312 15.953125 C 43.445312 15.796875 43.582031 15.722656 43.757812 15.722656 C 43.972656 15.722656 44.195312 15.832031 44.390625 15.992188 L 44.75 15.445312 C 44.488281 15.230469 44.136719 15.128906 43.75 15.128906 C 43.167969 15.128906 42.75 15.421875 42.75 15.988281 C 42.75 16.566406 43.203125 16.761719 43.628906 16.910156 C 43.972656 17.027344 44.113281 17.089844 44.113281 17.253906 C 44.113281 17.386719 44 17.492188 43.742188 17.492188 C 43.523438 17.492188 43.238281 17.398438 42.984375 17.203125 L 42.695312 17.773438 C 42.972656 17.996094 43.351562 18.097656 43.738281 18.097656 C 44.324219 18.097656 44.816406 17.855469 44.816406 17.210938 C 44.816406 16.628906 44.378906 16.480469 43.898438 16.296875 Z M 46.867188 16.949219 C 47.1875 17.296875 47.394531 17.675781 47.546875 18.058594 L 46.785156 18.058594 C 46.648438 17.730469 46.441406 17.402344 46.164062 17.125 L 45.902344 17.125 L 45.902344 18.058594 L 45.246094 18.058594 L 45.246094 15.164062 L 46.363281 15.164062 C 47.09375 15.164062 47.386719 15.570312 47.386719 16.113281 C 47.386719 16.515625 47.199219 16.804688 46.867188 16.949219 Z M 46.6875 16.148438 C 46.6875 15.925781 46.554688 15.765625 46.253906 15.765625 L 45.902344 15.765625 L 45.902344 16.53125 L 46.242188 16.53125 C 46.53125 16.53125 46.6875 16.386719 46.6875 16.148438 Z M 47.933594 18.058594 L 48.621094 18.058594 L 48.621094 15.164062 L 47.933594 15.164062 Z M 50.941406 15.164062 L 50.253906 15.164062 L 50.253906 18.058594 L 52.242188 18.058594 L 52.242188 17.453125 L 50.941406 17.453125 Z M 54.324219 15.164062 L 55.371094 18.058594 L 54.671875 18.058594 L 54.5 17.539062 L 53.503906 17.539062 L 53.332031 18.058594 L 52.628906 18.058594 L 53.679688 15.164062 Z M 54.324219 16.96875 L 54.007812 15.988281 L 53.996094 15.988281 L 53.683594 16.96875 Z M 57.597656 16.949219 L 57.589844 16.953125 L 56.417969 15.164062 L 55.773438 15.164062 L 55.773438 18.058594 L 56.433594 18.058594 L 56.433594 16.316406 L 56.441406 16.316406 L 57.601562 18.058594 L 58.261719 18.058594 L 58.261719 15.164062 L 57.597656 15.164062 Z M 61.21875 15.164062 L 60.367188 15.164062 L 59.507812 16.3125 L 59.5 16.3125 L 59.5 15.164062 L 58.828125 15.164062 L 58.828125 18.058594 L 59.5 18.058594 L 59.5 17.222656 L 59.765625 16.890625 C 60.066406 17.21875 60.34375 17.671875 60.480469 18.058594 L 61.242188 18.058594 C 61.039062 17.488281 60.640625 16.84375 60.21875 16.390625 Z M 63.15625 15.164062 L 64.203125 18.058594 L 63.503906 18.058594 L 63.335938 17.539062 L 62.335938 17.539062 L 62.167969 18.058594 L 61.460938 18.058594 L 62.511719 15.164062 Z M 63.15625 16.96875 L 62.839844 15.988281 L 62.832031 15.988281 L 62.515625 16.96875 Z M 66.429688 17.417969 L 66.882812 16.953125 C 67.25 16.566406 67.359375 16.21875 67.359375 15.933594 C 67.359375 15.417969 66.988281 15.085938 66.386719 15.085938 C 65.964844 15.085938 65.640625 15.230469 65.410156 15.394531 L 65.730469 15.957031 C 65.867188 15.835938 66.074219 15.726562 66.292969 15.726562 C 66.558594 15.726562 66.65625 15.878906 66.664062 16.039062 C 66.671875 16.265625 66.527344 16.457031 66.316406 16.683594 L 65.449219 17.605469 L 65.457031 18.058594 L 67.382812 18.058594 L 67.382812 17.433594 L 66.433594 17.433594 Z M 70.125 16.589844 C 70.125 17.507812 69.707031 18.097656 68.96875 18.097656 C 68.242188 18.097656 67.804688 17.535156 67.804688 16.589844 C 67.804688 15.683594 68.230469 15.085938 68.96875 15.085938 C 69.691406 15.085938 70.125 15.648438 70.125 16.589844 Z M 69.417969 16.589844 C 69.417969 16.078125 69.265625 15.734375 68.96875 15.734375 C 68.691406 15.734375 68.515625 16.011719 68.515625 16.589844 C 68.515625 17.101562 68.667969 17.449219 68.96875 17.449219 C 69.238281 17.449219 69.417969 17.175781 69.417969 16.589844 Z M 71.429688 17.417969 L 71.878906 16.953125 C 72.246094 16.566406 72.359375 16.21875 72.359375 15.933594 C 72.359375 15.417969 71.984375 15.085938 71.386719 15.085938 C 70.964844 15.085938 70.640625 15.230469 70.40625 15.394531 L 70.726562 15.957031 C 70.867188 15.835938 71.074219 15.726562 71.292969 15.726562 C 71.554688 15.726562 71.65625 15.878906 71.660156 16.039062 C 71.667969 16.265625 71.527344 16.457031 71.316406 16.683594 L 70.449219 17.605469 L 70.457031 18.058594 L 72.382812 18.058594 L 72.382812 17.433594 L 71.433594 17.433594 Z M 74.980469 17.105469 C 74.980469 17.742188 74.542969 18.097656 73.929688 18.097656 C 73.183594 18.097656 72.78125 17.535156 72.78125 16.660156 C 72.78125 15.390625 73.457031 15.078125 74.046875 15.078125 C 74.3125 15.078125 74.613281 15.144531 74.832031 15.265625 L 74.566406 15.839844 C 74.394531 15.742188 74.207031 15.691406 74.039062 15.691406 C 73.710938 15.691406 73.53125 15.886719 73.476562 16.324219 L 73.484375 16.328125 C 73.644531 16.21875 73.84375 16.15625 74.046875 16.15625 C 74.539062 16.15625 74.980469 16.492188 74.980469 17.105469 Z M 74.304688 17.101562 C 74.304688 16.863281 74.144531 16.699219 73.910156 16.699219 C 73.734375 16.699219 73.574219 16.78125 73.464844 16.898438 C 73.496094 17.257812 73.679688 17.484375 73.9375 17.484375 C 74.15625 17.484375 74.304688 17.324219 74.304688 17.101562 Z M 16.199219 18.941406 L 15.964844 13.820312 L 12.199219 18.535156 L 13.023438 14.996094 L 10.222656 15.898438 L 8.3125 17.757812 L 8.4375 16.472656 L 3.941406 17.917969 L 7.175781 17.914062 L 7.347656 20.210938 L 10.644531 16.921875 L 10.847656 21.992188 L 14.753906 17.070312 L 16.007812 21.136719 L 19.269531 14.882812 L 18.90625 18.34375 C 20.816406 16.503906 21.667969 14.214844 21.867188 12.148438 L 17.378906 13.59375 Z M 8.078125 8.050781 L 10.09375 1.691406 L 10.308594 6.628906 L 12.59375 5.171875 L 13.691406 2.40625 L 13.777344 4.417969 L 17.847656 1.820312 L 14.554688 2.628906 L 14.125 0.164062 L 11.535156 4.304688 L 10.476562 0 L 6.734375 6.484375 C 6.734375 6.484375 7.417969 2.472656 7.464844 2.289062 C 5.382812 3.359375 3.53125 5.367188 2.636719 8.078125 L 5.414062 5.496094 L 2.035156 11.902344 Z M 8.078125 8.050781 "/>
</g>
</svg>
