<?xml version="1.0" encoding="UTF-8"?>
<svg xmlns="http://www.w3.org/2000/svg" xmlns:xlink="http://www.w3.org/1999/xlink" width="121px" height="150px" viewBox="0 0 121 150" version="1.1">
<g id="surface1">
<path style=" stroke:none;fill-rule:nonzero;fill:rgb(91.764706%,0%,63.529414%);fill-opacity:1;" d="M 39.835938 142.394531 C 45.082031 140.359375 50.265625 138.34375 50.324219 138.296875 L 50.894531 135.445312 L 51.988281 129.949219 C 58.511719 137.308594 66.046875 145.808594 69.734375 149.96875 L 71.511719 136.269531 L 73.75 118.976562 L 89.394531 129.171875 L 92.597656 131.257812 L 91.785156 127.660156 L 82.046875 84.582031 C 95.472656 99.582031 110.773438 116.679688 117.160156 123.816406 C 116.328125 108.214844 112.917969 43.769531 112.011719 26.859375 L 102.21875 82.222656 C 83.351562 61.742188 56.636719 32.699219 42.648438 17.554688 C 51.960938 39.855469 72.640625 89.386719 84.746094 118.375 C 77.566406 109.003906 68.058594 96.601562 63.777344 91.019531 C 63.097656 97.375 61.808594 109.382812 60.679688 119.867188 C 53.351562 110.789062 44.820312 100.222656 39.898438 94.121094 C 40.453125 103.539062 41.558594 121.792969 42.1875 132.492188 C 32.785156 136.867188 17.351562 144.054688 9.390625 147.757812 C 19.867188 147.253906 43.339844 146.117188 53.988281 145.609375 Z M 39.835938 142.394531 "/>
<path style=" stroke:none;fill-rule:nonzero;fill:rgb(100%,56.862748%,0%);fill-opacity:1;" d="M 34.082031 138.390625 C 40.011719 136.414062 45.875 134.460938 45.945312 134.410156 L 46.730469 131.277344 L 48.246094 125.238281 C 55.085938 133.765625 62.984375 143.605469 66.847656 148.421875 L 69.566406 133.316406 L 73.003906 114.246094 L 89.800781 126.414062 L 93.242188 128.90625 L 92.539062 124.867188 L 84.09375 76.527344 C 98.171875 93.90625 114.214844 113.714844 120.910156 121.980469 C 120.84375 104.625 120.59375 32.921875 120.515625 14.101562 L 106.609375 75.007812 C 86.792969 51.253906 58.742188 17.566406 44.042969 0 C 53.15625 25.253906 73.394531 81.351562 85.238281 114.179688 C 77.78125 103.386719 67.910156 89.105469 63.46875 82.679688 C 62.363281 89.695312 60.273438 102.949219 58.449219 114.523438 C 50.8125 104.046875 41.921875 91.859375 36.796875 84.820312 C 36.898438 95.300781 37.121094 115.621094 37.234375 127.527344 C 26.558594 131.871094 9.039062 139.003906 0 142.683594 C 11.652344 142.695312 37.765625 142.710938 49.609375 142.726562 Z M 34.082031 138.390625 "/>
</g>
</svg>
